<svg xmlns="http://www.w3.org/2000/svg" width="231" height="88.597" viewBox="0 0 231 88.597">
  <g id="ColouredELogo-01" transform="translate(-0.2)">
    <path id="Path_112" data-name="Path 112" d="M48.661,21.12a22.346,22.346,0,0,0,1.928-4.732,16.561,16.561,0,0,0,.7-4.645,5.6,5.6,0,0,0-.876-2.892A20.2,20.2,0,0,0,48.223,5.7,22.54,22.54,0,0,0,45.331,2.8,13.17,13.17,0,0,0,42.439.789C41.387.263,39.547,0,36.831,0a16.508,16.508,0,0,0-5,.789,21.114,21.114,0,0,0-5,2.191A28.2,28.2,0,0,0,22.2,6.31a25.28,25.28,0,0,0-3.856,4.206,20.338,20.338,0,0,0-2.629,4.907,15.611,15.611,0,0,0-.964,5.346,10.886,10.886,0,0,0,.351,2.892,7.227,7.227,0,0,0,.876,2.278A6.753,6.753,0,0,0,17.2,27.78a11.286,11.286,0,0,0,1.4,1.49,42.119,42.119,0,0,0-7.186,4.294,31.818,31.818,0,0,0-5.871,5.521A25.687,25.687,0,0,0,1.6,45.744,21.085,21.085,0,0,0,.2,53.456v.964a5.964,5.964,0,0,0,.7,2.717,11.832,11.832,0,0,0,1.665,2.892,18.15,18.15,0,0,0,2.454,2.8A19.641,19.641,0,0,0,8,65.2a17.587,17.587,0,0,0,3.418,1.665,10.149,10.149,0,0,0,3.681.613,12.243,12.243,0,0,0,4.645-.964,33.987,33.987,0,0,0,5.083-2.454,51.452,51.452,0,0,0,5.083-3.418c1.665-1.227,3.242-2.454,4.645-3.681s2.629-2.366,3.681-3.418a29.173,29.173,0,0,0,2.191-2.454c-.964-.789-2.016-1.665-3.242-2.629-1.139-.964-2.454-2.016-4.031-3.33-.613.789-1.4,1.665-2.454,2.8s-2.191,2.191-3.418,3.418a41.718,41.718,0,0,1-4.119,3.593c-1.49,1.139-2.892,2.278-4.382,3.242a32.57,32.57,0,0,1-4.206,2.366,8.745,8.745,0,0,1-3.681.876,2.2,2.2,0,0,1-1.84-.876,3.677,3.677,0,0,1-.613-2.1A17.244,17.244,0,0,1,10.1,51.265a28.078,28.078,0,0,1,4.645-7.186,38.308,38.308,0,0,1,7.1-6.485,42.167,42.167,0,0,1,9.026-5.17c-1.052-.613-2.016-1.314-2.892-1.84a15.017,15.017,0,0,1-2.191-1.928A6.667,6.667,0,0,1,24.474,26.2a8.517,8.517,0,0,1-.438-3.33,12.592,12.592,0,0,1,.876-4.382,18.885,18.885,0,0,1,2.1-4.206A20.669,20.669,0,0,1,30.17,10.6a27.341,27.341,0,0,1,3.593-2.892,18.373,18.373,0,0,1,3.681-1.928,8.723,8.723,0,0,1,3.33-.7,2.848,2.848,0,0,1,2.454.964,4.711,4.711,0,0,1,.7,2.454,11.543,11.543,0,0,1-.7,3.856,20.767,20.767,0,0,1-1.753,4.031,27.836,27.836,0,0,1-2.454,3.768,18.661,18.661,0,0,1-2.892,2.98l6.66,5.959a29.163,29.163,0,0,0,3.155-3.418,30.225,30.225,0,0,0,2.8-4.294Z" transform="translate(0)" fill="#e43d30"/>
    <path id="Path_113" data-name="Path 113" d="M248.6,35.255a5.669,5.669,0,0,1,.789.7,3.431,3.431,0,0,0,.876.7c.175.175.438.263.613.438,1.753-1.4,3.418-2.892,5.083-4.469a43.439,43.439,0,0,0,4.645-5.17,5.008,5.008,0,0,1-.7-.613,13.476,13.476,0,0,0-1.139-1.052c-.438-.351-.876-.789-1.4-1.227a15.246,15.246,0,0,0-1.577-.964c-.263.438-.7,1.139-1.314,2.016s-1.227,1.84-2.016,2.98-1.577,2.191-2.366,3.242-1.577,2.016-2.191,2.8c.175.175.351.438.526.526Z" transform="translate(-30.634 -2.919)"/>
    <path id="Path_114" data-name="Path 114" d="M236.233,49.88c-1.314,1.227-2.541,2.366-3.856,3.505a27.179,27.179,0,0,1-4.031,3.067,20.485,20.485,0,0,1-4.382,2.191,13.035,13.035,0,0,1-4.82.876,2.881,2.881,0,0,1-1.928-.438,1.938,1.938,0,0,1-.526-1.665,12.94,12.94,0,0,1,.088-1.84c2.278-1.052,4.382-2.016,6.222-3.067a55.36,55.36,0,0,0,4.907-2.892,19.034,19.034,0,0,0,3.155-2.8A4.459,4.459,0,0,0,232.2,44.1a3.851,3.851,0,0,0-.613-1.928,9.435,9.435,0,0,0-1.577-2.1,10.7,10.7,0,0,0-2.191-1.753,4.644,4.644,0,0,0-2.366-.7,13.342,13.342,0,0,0-3.681.526,17.8,17.8,0,0,0-4.031,1.665,20.31,20.31,0,0,0-3.856,2.717,22.786,22.786,0,0,0-3.33,3.768,18.726,18.726,0,0,0-2.278,4.82c-.175.438-.263.964-.438,1.49-.7.613-1.49,1.227-2.278,1.84s-1.577,1.227-2.278,1.753a14.41,14.41,0,0,1-1.928,1.227,2.968,2.968,0,0,1-1.314.526c-.088,0-.263,0-.263-.175h0a18.137,18.137,0,0,1,.613-4.294c.438-1.753.964-3.681,1.577-5.7.7-2.1,1.4-4.294,2.278-6.572s1.753-4.557,2.717-6.835h8.325c.088,0,.175,0,.351-.175a5.5,5.5,0,0,0,.964-1.052,12.54,12.54,0,0,0,.964-1.314,6.535,6.535,0,0,0,.613-1.052c.088-.263,0-.438-.263-.438l-9.377.351c.789-1.84,1.577-3.681,2.278-5.346s1.4-3.155,2.016-4.469,1.139-2.366,1.577-3.242.7-1.4.876-1.665v-.175h0c0-.175-.175-.263-.351-.263a7.892,7.892,0,0,0-1.4.263c-.7.175-1.4.438-2.191.7s-1.577.613-2.454.964a16.212,16.212,0,0,0-2.1.964,7.691,7.691,0,0,0-1.84,1.052,3.735,3.735,0,0,0-1.052.964,3.618,3.618,0,0,0-.613.964,8.143,8.143,0,0,1-.438.876c-.526,1.052-1.139,2.366-1.753,3.856s-1.314,3.155-2.1,4.907l-5.083.263a1.178,1.178,0,0,0-.613.526,3.147,3.147,0,0,0-.613.876,10.28,10.28,0,0,0-.438.964,1.651,1.651,0,0,0-.175.7h5.521c-.876,2.366-1.84,4.82-2.717,7.274s-1.665,4.82-2.366,6.923c-.263.7-.438,1.4-.7,2.1l-.438.438L189.35,52.86c-.789.613-1.49,1.314-2.278,1.928s-1.577,1.227-2.278,1.753-1.4.964-1.928,1.314a2.968,2.968,0,0,1-1.314.526c-.088,0-.263,0-.263-.175h0a3.969,3.969,0,0,1,.263-1.4c.175-.613.438-1.314.7-2.191.263-.789.613-1.753.964-2.629s.7-1.928,1.052-2.8.7-1.84,1.052-2.717.613-1.665.789-2.278a3.8,3.8,0,0,1,.088-.438v-.263a1.93,1.93,0,0,0-.789-1.4,14.3,14.3,0,0,0-1.753-1.49c-.7-.438-1.4-.876-2.1-1.227a4.315,4.315,0,0,0-1.49-.526,3.249,3.249,0,0,0-1.227.351,10.4,10.4,0,0,0-2.016,1.4,38.647,38.647,0,0,0-2.98,2.8c-1.139,1.227-2.629,2.717-4.206,4.557.351-.876.613-1.753.964-2.629s.613-1.665.964-2.541a21.653,21.653,0,0,0-3.681-2.629,37.9,37.9,0,0,0-3.681-1.928,37.912,37.912,0,0,0-1.84,4.732c-.526,1.665-1.139,3.242-1.665,4.732-.351,1.052-.613,2.1-.964,3.067l-.526.438c-.613.526-1.227,1.052-1.928,1.753s-1.49,1.227-2.278,1.928-1.577,1.227-2.278,1.753-1.314.964-1.84,1.314a2.716,2.716,0,0,1-1.139.526c-.088,0-.263,0-.263-.175h0V57.066a7.454,7.454,0,0,1,.351-1.928,21.316,21.316,0,0,1,.789-2.629,22.29,22.29,0,0,1,1.4-3.33,2.853,2.853,0,0,0-.351-1.227c-.263-.526-.526-1.052-.789-1.665a8.74,8.74,0,0,0-1.052-1.665,10.5,10.5,0,0,0-.964-1.052h-.088a15.694,15.694,0,0,1-1.753,2.454c-.7.789-1.4,1.49-2.016,2.1a28.685,28.685,0,0,1-2.366,2.1l-2.629,2.191c-.876.7-1.577,1.227-2.278,1.753a14.41,14.41,0,0,1-1.928,1.227,2.648,2.648,0,0,1-1.4.438c-.351,0-.526-.175-.526-.7a8.179,8.179,0,0,1,1.052-2.892,19.016,19.016,0,0,1,3.943-4.82q1.183-1.183,2.629-2.366c.964-.789,1.753-1.4,2.8-2.191a26.555,26.555,0,0,1,3.33-2.1h0v-.175a4.049,4.049,0,0,0-.613-.613,4.969,4.969,0,0,0-1.139-.7c-.438-.263-.876-.438-1.314-.7-.351-.175-.7-.351-1.139-.526h-.351a22.988,22.988,0,0,0-4.031,1.665,38.914,38.914,0,0,0-3.418,2.1,31.97,31.97,0,0,0-3.242,2.541,29.377,29.377,0,0,0-4.645,5.258l-.526.789c-1.49,1.49-2.98,2.892-4.469,4.119-1.665,1.49-3.33,2.8-5,4.206.7-2.1,1.227-4.031,1.665-5.608.438-1.665.789-2.892,1.052-3.856V49h0a2.9,2.9,0,0,0-.351-1.314,17.513,17.513,0,0,0-.876-1.84,6.2,6.2,0,0,0-1.052-1.577,2.252,2.252,0,0,0-.876-.789l-.175.175-.175.175c-.351.438-.789,1.052-1.4,1.84s-1.314,1.577-2.016,2.454a33.648,33.648,0,0,1-2.454,2.629,33.592,33.592,0,0,1-2.541,2.454,13.075,13.075,0,0,1-2.541,1.753,4.959,4.959,0,0,1-2.191.7c-.175,0-.438,0-.526-.263a1.267,1.267,0,0,1-.175-.613,4.458,4.458,0,0,1,.789-2.278,20.787,20.787,0,0,1,2.016-2.629c.876-.964,1.753-1.84,2.8-2.8s2.1-1.84,3.155-2.629,2.016-1.577,2.98-2.191,1.665-1.139,2.278-1.49h.088a.306.306,0,0,0,.088-.175,2.012,2.012,0,0,0-.613-.526l-1.314-.789a12.415,12.415,0,0,0-1.577-.7,5.023,5.023,0,0,0-1.227-.351,20.478,20.478,0,0,0-5.346,2.278,34.536,34.536,0,0,0-4.645,3.33,31.928,31.928,0,0,0-3.768,3.943c-.7.876-1.314,1.753-1.84,2.541h0c-1.227,1.227-2.541,2.366-3.856,3.505A27.18,27.18,0,0,1,89.1,56.891a20.485,20.485,0,0,1-4.382,2.191,13.035,13.035,0,0,1-4.82.876,2.881,2.881,0,0,1-1.928-.438,1.938,1.938,0,0,1-.526-1.665,12.942,12.942,0,0,1,.088-1.84c2.278-1.052,4.382-2.016,6.31-3.067a55.359,55.359,0,0,0,4.907-2.892,19.035,19.035,0,0,0,3.155-2.8,4.459,4.459,0,0,0,1.139-2.717,3.851,3.851,0,0,0-.613-1.928,9.434,9.434,0,0,0-1.577-2.1,10.7,10.7,0,0,0-2.191-1.753,4.644,4.644,0,0,0-2.366-.7,13.342,13.342,0,0,0-3.681.526,17.8,17.8,0,0,0-4.031,1.665,20.31,20.31,0,0,0-3.856,2.717,18.855,18.855,0,0,0-5.608,8.588,7.3,7.3,0,0,0-.351,1.314l-.351.263c-.789.7-1.665,1.314-2.629,2.016s-1.84,1.314-2.717,1.84c-.789.526-1.577.964-2.366,1.4a3.72,3.72,0,0,1-1.665.526.592.592,0,0,1-.526-.351,3.262,3.262,0,0,1-.175-1.577,33.17,33.17,0,0,1,.438-5.083,54.8,54.8,0,0,1,1.577-7.536c1.49-1.4,2.98-2.892,4.382-4.382s2.629-2.892,3.768-4.206c1.227-1.49,2.454-2.98,3.593-4.469,2.454-3.155,4.469-5.871,5.959-8.15a68.692,68.692,0,0,0,3.593-6.047A24.23,24.23,0,0,0,83.4,12.987a8.142,8.142,0,0,0,.438-2.541,2.426,2.426,0,0,0-.088-.789c0-.263-.263-.438-.438-.613a4.269,4.269,0,0,1-.7-.876,7,7,0,0,0-1.139-1.139,16,16,0,0,0-1.4-1.139,4.872,4.872,0,0,0-1.49-.789,3.72,3.72,0,0,0-1.665.526,16.643,16.643,0,0,0-2.98,1.753c-1.4,1.052-2.717,2.1-4.031,3.242A50.656,50.656,0,0,0,65.262,15.7a77.336,77.336,0,0,0-4.907,7.011,92.6,92.6,0,0,0-4.907,9.2c-.876,1.928-1.577,3.856-2.278,5.871-.7,2.191-1.4,4.294-1.928,6.572q-.789,3.286-1.314,6.31a46.625,46.625,0,0,0-.526,4.907v1.314a4.942,4.942,0,0,0,.964,1.753,16.324,16.324,0,0,0,2.016,2.278,14.288,14.288,0,0,0,2.541,2.016,4.678,4.678,0,0,0,2.541.876,4.845,4.845,0,0,0,2.191-.613,24.456,24.456,0,0,0,2.892-1.665c1.052-.7,2.1-1.49,3.155-2.278.876-.7,1.665-1.4,2.454-2.016v.175a3.977,3.977,0,0,0,.7,2.016,15.621,15.621,0,0,0,1.84,2.366,17.408,17.408,0,0,0,2.366,1.928,5.416,5.416,0,0,0,2.366.789A19.694,19.694,0,0,0,80.51,63.9a21.114,21.114,0,0,0,5.521-2.1,43.437,43.437,0,0,0,6.047-3.768c.613-.438,1.139-.876,1.753-1.4a17.548,17.548,0,0,0-.351,2.1,3.753,3.753,0,0,0,.526,1.928,7.291,7.291,0,0,0,1.139,1.577,5.346,5.346,0,0,0,1.4,1.052,2.582,2.582,0,0,0,1.139.438,8.675,8.675,0,0,0,3.593-.876,22.4,22.4,0,0,0,3.943-2.366,47.862,47.862,0,0,0,3.856-3.33A27,27,0,0,0,112.32,53.3c-.964,2.98-1.84,5.521-2.541,7.536s-1.4,3.768-1.928,5.258c-2.541,1.753-4.907,3.418-7.1,4.907s-4.119,2.98-5.7,4.294a20.579,20.579,0,0,0-3.768,4.031,7.181,7.181,0,0,0-1.4,3.943,3.533,3.533,0,0,0,.526,1.928,9.836,9.836,0,0,0,1.4,1.928,13.469,13.469,0,0,0,1.665,1.49,3.15,3.15,0,0,0,1.577.613,5.929,5.929,0,0,0,2.366-.613,20.41,20.41,0,0,0,2.98-1.753c1.139-.876,2.278-1.753,3.33-2.717a43.774,43.774,0,0,0,3.418-3.593A50.268,50.268,0,0,0,110.3,76.17a52.783,52.783,0,0,0,2.629-4.907c.526-1.227,1.052-2.454,1.49-3.681s.964-2.454,1.314-3.681c2.191-1.665,4.469-3.418,6.66-5.346.438-.351.876-.789,1.314-1.139,0,.175-.088.351-.088.526a13.118,13.118,0,0,0-.263,1.577,3.625,3.625,0,0,0,.438,1.665,5.757,5.757,0,0,0,1.052,1.49,4.612,4.612,0,0,0,1.227,1.052,1.879,1.879,0,0,0,1.052.351h.613a26.262,26.262,0,0,0,3.593-1.577,34.983,34.983,0,0,0,3.856-2.366c1.227-.876,2.454-1.84,3.593-2.8a30.369,30.369,0,0,0,2.98-2.8,23.24,23.24,0,0,0-.7,2.541,12.408,12.408,0,0,0-.351,1.753v1.928a2.954,2.954,0,0,0,.438,1.49,4.685,4.685,0,0,0,1.139,1.139,4.449,4.449,0,0,0,1.577.789,4.962,4.962,0,0,0,1.577.263,5.58,5.58,0,0,0,2.366-.613,24.456,24.456,0,0,0,2.892-1.665c1.052-.7,2.016-1.4,3.155-2.278s2.1-1.753,3.067-2.629l1.052-.964v.175c-.351,1.139-.526,2.016-.7,2.717a6.765,6.765,0,0,0-.175,1.314c.526.526,1.052,1.052,1.577,1.49a13.063,13.063,0,0,0,1.753,1.314,16.28,16.28,0,0,0,1.665.964,2.88,2.88,0,0,0,1.49.351.966.966,0,0,0,.789-.263c.175-.263.263-.613.438-.876a56.912,56.912,0,0,1,7.536-13.057,39.426,39.426,0,0,1,3.155-3.768,20.456,20.456,0,0,0,2.1-2.366h0c-.438,1.052-.964,2.366-1.49,3.768s-.964,2.8-1.49,4.206-.876,2.8-1.314,4.119-.7,2.541-.964,3.593a2.068,2.068,0,0,0,.613,1.4,6.588,6.588,0,0,0,1.4,1.314,11.6,11.6,0,0,0,1.753,1.052,4.2,4.2,0,0,0,1.49.438,4.553,4.553,0,0,0,2.191-.613,18.176,18.176,0,0,0,2.8-1.665c.964-.7,2.1-1.49,3.155-2.278s2.1-1.753,3.155-2.541a8.728,8.728,0,0,0,.964-.876,11.835,11.835,0,0,0-.351,2.454,2.61,2.61,0,0,0,.7,1.577c.526.613,1.139,1.227,1.753,1.84a12.835,12.835,0,0,0,2.1,1.49,4.2,4.2,0,0,0,1.753.613,4.845,4.845,0,0,0,2.191-.613,24.456,24.456,0,0,0,2.892-1.665c1.052-.7,2.1-1.49,3.155-2.278.876-.7,1.665-1.4,2.454-2.016v.175a3.977,3.977,0,0,0,.7,2.016,12.334,12.334,0,0,0,4.294,4.206,5.416,5.416,0,0,0,2.366.789,19.694,19.694,0,0,0,5.083-.613,21.114,21.114,0,0,0,5.521-2.1,43.437,43.437,0,0,0,6.047-3.768,71.972,71.972,0,0,0,6.748-5.871l-1.928-1.84Zm-17.176-1.665a28.357,28.357,0,0,1,1.753-3.155,11.1,11.1,0,0,1,1.84-2.191,2.607,2.607,0,0,1,1.753-.876c.263,0,.438,0,.613.263a.581.581,0,0,1,.175.613,4.957,4.957,0,0,1-.7,2.454,9.217,9.217,0,0,1-1.753,2.366,29.173,29.173,0,0,1-2.454,2.191c-.876.7-1.84,1.314-2.8,2.016a32.374,32.374,0,0,1,1.49-3.681Zm-138.635,0a28.356,28.356,0,0,1,1.753-3.155A11.523,11.523,0,0,1,84.1,42.87a2.607,2.607,0,0,1,1.753-.876c.263,0,.438,0,.613.263a.581.581,0,0,1,.175.613,4.957,4.957,0,0,1-.7,2.454A9.217,9.217,0,0,1,84.19,47.69a29.173,29.173,0,0,1-2.454,2.191c-.876.7-1.84,1.314-2.8,2.016a31.6,31.6,0,0,1,1.4-3.681h.088ZM64.56,32.967c.351-.964.789-1.928,1.227-2.892A93.2,93.2,0,0,1,70.432,20.7a59.958,59.958,0,0,1,4.119-6.31A20.139,20.139,0,0,1,77.618,10.8,3.957,3.957,0,0,1,79.2,9.657c.175,0,.175,0,.175.088v.263a5.929,5.929,0,0,1-.613,2.366A34.008,34.008,0,0,1,76.829,16.4c-.876,1.665-1.928,3.505-3.242,5.608s-2.892,4.469-4.732,7.011c-.438.613-.964,1.314-1.49,2.016S66.313,32.354,65.7,33.23s-1.4,1.665-2.191,2.629a26.52,26.52,0,0,1,1.052-2.8Zm39.084,42.327a47.759,47.759,0,0,1-3.242,4.119c-.964,1.052-2.016,2.1-3.067,3.067a3.79,3.79,0,0,1-2.278,1.139.232.232,0,0,1-.263-.263,5.3,5.3,0,0,1,.876-2.8,14.715,14.715,0,0,1,2.366-2.98,30.856,30.856,0,0,1,3.593-3.155c1.4-1.052,2.98-2.191,4.645-3.418a44.584,44.584,0,0,1-2.629,4.382h0Z" transform="translate(-6.085 -0.631)"/>
  </g>
</svg>
